<svg width="32" height="32" viewBox="0 0 32 32" fill="#FFFFFF" xmlns="http://www.w3.org/2000/svg">
<path fill-rule="evenodd" clip-rule="evenodd" d="M19.2185 16.4109C19.7692 15.879 20.6446 15.8866 21.186 16.428C21.7274 16.9694 21.735 17.8448 21.2031 18.3955L10.6767 28.9219C10.4135 29.1852 10.0566 29.3331 9.68437 29.3332H4.07027C3.29513 29.3332 2.66675 28.7048 2.66675 27.9296V22.3155C2.66683 21.9433 2.81475 21.5864 3.07798 21.3233L21.3238 3.07744C21.8719 2.52953 22.7603 2.52953 23.3084 3.07744L28.9225 8.69154C29.4704 9.23961 29.4704 10.128 28.9225 10.6761L24.7119 14.8867C24.1638 15.4346 23.2754 15.4346 22.7273 14.8867L19.9203 12.0796C19.5554 11.7273 19.4091 11.2054 19.5375 10.7147C19.666 10.224 20.0492 9.84077 20.5399 9.71232C21.0306 9.58388 21.5525 9.7302 21.9049 10.0951L23.7196 11.9098L25.9456 9.68383L22.3161 6.05431L5.4738 22.8966V26.5261H9.10331L19.2185 16.4109V16.4109Z"/>
</svg>
