<svg width="24" height="24" viewBox="0 0 24 24" fill="none" xmlns="http://www.w3.org/2000/svg">
<rect opacity="0.01" width="24" height="24" fill="white"/>
<path fill-rule="evenodd" clip-rule="evenodd" d="M14.8987 10.7136V8.54119C14.8987 7.66696 14.5949 6.92065 13.9874 6.30227C13.3799 5.68389 12.8592 5.3747 12.0003 5.3747C11.1415 5.3747 10.5714 5.68389 9.96387 6.30227C9.35634 6.92065 9.05258 7.66696 9.05258 8.54119V10.7136H14.8987ZM19 19.8127C19 20.1424 18.8866 20.4227 18.6597 20.6536C18.4329 20.8845 18.1575 21 17.8335 21H6.1665C5.84255 21 5.56714 20.8845 5.34028 20.6536C5.11343 20.4227 5 20.1424 5 19.8127V11.9016C5 11.5719 5.11343 11.2916 5.34028 11.0607C5.56714 10.8297 5.84255 10.7143 6.1665 10.7143H6.71823V8.54188C6.71823 7.02433 7.25293 5.7213 8.32233 4.63278C9.39173 3.54426 10.5088 3 11.9997 3C13.4906 3 14.5582 3.54426 15.6276 4.63278C16.697 5.7213 17.2317 7.02433 17.2317 8.54188V10.7143H17.8328C18.1568 10.7143 18.4322 10.8297 18.659 11.0607C18.8859 11.2916 18.9993 11.5719 18.9993 11.9016L19 19.8127Z" fill="white"/>
</svg>
